<mxfile host="app.diagrams.net" modified="2024-01-24T01:43:58.146Z" agent="Mozilla/5.0 (Windows NT 10.0; Win64; x64) AppleWebKit/537.36 (KHTML, like Gecko) Chrome/120.0.0.0 Safari/537.36" version="22.1.22" etag="b9nFuZq8W4shEAjpx3RD" type="github">
  <diagram name="Trang-1" id="2EZCtL3xzMXU3lK0zrlj">
    <mxGraphModel>
      <root>
        <mxCell id="0" />
        <mxCell id="1" parent="0" />
      </root>
    </mxGraphModel>
  </diagram>
</mxfile>
